<?xml version="1.0" encoding="UTF-8" standalone="no"?>
<svg width="86px" height="83px" viewBox="0 0 86 83" version="1.1" xmlns="http://www.w3.org/2000/svg" xmlns:xlink="http://www.w3.org/1999/xlink" xmlns:sketch="http://www.bohemiancoding.com/sketch/ns">
    <!-- Generator: Sketch 3.1.1 (8761) - http://www.bohemiancoding.com/sketch -->
    <title>wizard_icons_hack_school</title>
    <desc>Created with Sketch.</desc>
    <defs></defs>
    <g id="Page-1" stroke="none" stroke-width="1" fill="none" fill-rule="evenodd" sketch:type="MSPage">
        <g id="-8" sketch:type="MSArtboardGroup" transform="translate(-187.000000, -409.000000)" fill="#5D7E8F">
            <g id="Group" sketch:type="MSLayerGroup" transform="translate(50.000000, 384.000000)">
                <g id="wizard_icons_hack_school" transform="translate(138.000000, 26.000000)" sketch:type="MSShapeGroup">
                    <path d="M83.5566038,32.0245033 L76.9811321,26.7139073 C75.8050314,25.7483444 74.1477987,25.7483444 72.9716981,26.7139073 L65.2201258,32.9900662 L65.2201258,29.181457 C65.2201258,27.4112583 63.8301887,26.0165563 62.0660377,26.0165563 L60.3553459,26.0165563 C60.3553459,20.5450331 52.9779874,16.0927152 43.6226415,15.7172185 L43.6226415,9.60198675 L53.0314465,6.49072848 C54.4748428,6.00794702 54.4748428,3.91589404 53.0314465,3.43311258 L43.0345912,0.107284768 C42.8207547,-0.0536423841 42.5534591,-0.160927152 42.2327044,-0.160927152 C41.4842767,-0.160927152 40.8962264,0.429139073 40.8962264,1.18013245 L40.8962264,15.6635762 C31.5408805,16.0927152 24.163522,20.5450331 24.163522,26.0165563 L22.4528302,26.0165563 C20.6886792,26.0165563 19.2987421,27.4112583 19.2987421,29.181457 L19.2987421,32.9900662 L11.4937107,26.7139073 C10.3176101,25.7483444 8.66037736,25.7483444 7.48427673,26.7139073 L0.908805031,32.0245033 C0.160377358,32.6145695 -0.267295597,33.5801325 -0.267295597,34.5456954 L-0.267295597,72.6317881 C-0.267295597,74.4019868 1.17610063,75.7966887 2.88679245,75.7966887 L19.2987421,75.7966887 L19.2987421,77.9960265 C19.2987421,79.7662252 20.6886792,81.1609272 22.4528302,81.1609272 L62.0125786,81.1609272 C63.7767296,81.1609272 65.1666667,79.7662252 65.1666667,77.9960265 L65.1666667,75.7966887 L81.5786164,75.7966887 C83.3427673,75.7966887 84.7327044,74.3483444 84.7327044,72.6317881 L84.7327044,34.5456954 C84.7861635,33.5264901 84.3584906,32.6145695 83.5566038,32.0245033 L83.5566038,32.0245033 Z M8.71383648,57.2364238 C8.71383648,58.1483444 8.01886792,58.8456954 7.11006289,58.8456954 L5.13207547,58.8456954 C4.22327044,58.8456954 3.52830189,58.1483444 3.52830189,57.2364238 L3.52830189,55.2516556 C3.52830189,54.3397351 4.22327044,53.6423841 5.13207547,53.6423841 L7.11006289,53.6423841 C8.01886792,53.6423841 8.71383648,54.3397351 8.71383648,55.2516556 L8.71383648,57.2364238 L8.71383648,57.2364238 Z M8.71383648,49.4582781 C8.71383648,50.3701987 8.01886792,51.0675497 7.11006289,51.0675497 L5.13207547,51.0675497 C4.22327044,51.0675497 3.52830189,50.3701987 3.52830189,49.4582781 L3.52830189,47.4735099 C3.52830189,46.5615894 4.22327044,45.8642384 5.13207547,45.8642384 L7.11006289,45.8642384 C8.01886792,45.8642384 8.71383648,46.5615894 8.71383648,47.4735099 L8.71383648,49.4582781 L8.71383648,49.4582781 Z M8.71383648,41.5728477 C8.71383648,42.4847682 8.01886792,43.1821192 7.11006289,43.1821192 L5.13207547,43.1821192 C4.22327044,43.1821192 3.52830189,42.4847682 3.52830189,41.5728477 L3.52830189,39.5880795 C3.52830189,38.6761589 4.22327044,37.9788079 5.13207547,37.9788079 L7.11006289,37.9788079 C8.01886792,37.9788079 8.71383648,38.6761589 8.71383648,39.5880795 L8.71383648,41.5728477 L8.71383648,41.5728477 Z M16.091195,57.2364238 C16.091195,58.1483444 15.3962264,58.8456954 14.4874214,58.8456954 L12.509434,58.8456954 C11.6006289,58.8456954 10.9056604,58.1483444 10.9056604,57.2364238 L10.9056604,55.2516556 C10.9056604,54.3397351 11.6006289,53.6423841 12.509434,53.6423841 L14.4874214,53.6423841 C15.3962264,53.6423841 16.091195,54.3397351 16.091195,55.2516556 L16.091195,57.2364238 L16.091195,57.2364238 Z M16.091195,49.4582781 C16.091195,50.3701987 15.3962264,51.0675497 14.4874214,51.0675497 L12.509434,51.0675497 C11.6006289,51.0675497 10.9056604,50.3701987 10.9056604,49.4582781 L10.9056604,47.4735099 C10.9056604,46.5615894 11.6006289,45.8642384 12.509434,45.8642384 L14.4874214,45.8642384 C15.3962264,45.8642384 16.091195,46.5615894 16.091195,47.4735099 L16.091195,49.4582781 L16.091195,49.4582781 Z M16.091195,41.5728477 C16.091195,42.4847682 15.3962264,43.1821192 14.4874214,43.1821192 L12.509434,43.1821192 C11.6006289,43.1821192 10.9056604,42.4847682 10.9056604,41.5728477 L10.9056604,39.5880795 C10.9056604,38.6761589 11.6006289,37.9788079 12.509434,37.9788079 L14.4874214,37.9788079 C15.3962264,37.9788079 16.091195,38.6761589 16.091195,39.5880795 L16.091195,41.5728477 L16.091195,41.5728477 Z M38.9716981,23.9245033 C39.4528302,21.7788079 40.7358491,20.7059603 42.2327044,20.7059603 C43.7295597,20.7059603 45.0125786,21.7788079 45.4937107,23.9245033 C45.7075472,24.9437086 44.9591195,25.8556291 43.9433962,25.8556291 L40.5754717,25.8556291 C39.5597484,25.8556291 38.7578616,24.9437086 38.9716981,23.9245033 L38.9716981,23.9245033 Z M34,60.186755 C33.7327044,60.186755 33.4654088,60.1331126 33.1981132,59.9721854 L25.2327044,55.0370861 L25.1257862,54.9298013 C23.8962264,53.6960265 23.8962264,51.6576159 25.1257862,50.4238411 L25.2327044,50.3165563 L33.1981132,45.381457 C33.8930818,44.9523179 34.8553459,45.1668874 35.2830189,45.8642384 C35.7106918,46.5615894 35.4968553,47.5271523 34.8018868,47.9562914 L27.2106918,52.6768212 L27.2106918,52.784106 L34.7484277,57.397351 C35.4433962,57.8264901 35.6572327,58.7384106 35.2295597,59.489404 C34.9622642,59.9721854 34.4811321,60.186755 34,60.186755 L34,60.186755 Z M38.3301887,66.0337748 C38.1163522,66.6238411 37.5283019,66.9993377 36.9402516,66.9993377 C36.7798742,66.9993377 36.5660377,66.9456954 36.4056604,66.892053 C35.6572327,66.5701987 35.2295597,65.7119205 35.5503145,64.9609272 L45.3333333,39.3198675 C45.6540881,38.5688742 46.509434,38.1397351 47.2578616,38.4615894 C48.0062893,38.7834437 48.4339623,39.6417219 48.1132075,40.3927152 L38.3301887,66.0337748 L38.3301887,66.0337748 Z M58.591195,54.9298013 L58.4842767,55.0370861 L50.5188679,59.9721854 C50.2515723,60.1331126 49.9842767,60.186755 49.7169811,60.186755 C49.2358491,60.186755 48.7012579,59.918543 48.4339623,59.489404 C48.0062893,58.792053 48.2201258,57.8264901 48.9150943,57.397351 L56.5062893,52.6768212 L56.5062893,52.5695364 L48.9150943,47.8490066 C48.2201258,47.4198675 48.0062893,46.507947 48.4339623,45.7569536 C48.8616352,45.0596026 49.7704403,44.8450331 50.5188679,45.2741722 L58.4842767,50.2092715 L58.591195,50.3165563 C59.8207547,51.6576159 59.8207547,53.6960265 58.591195,54.9298013 L58.591195,54.9298013 Z M73.8805031,57.2364238 C73.8805031,58.1483444 73.1855346,58.8456954 72.2767296,58.8456954 L70.2987421,58.8456954 C69.3899371,58.8456954 68.6949686,58.1483444 68.6949686,57.2364238 L68.6949686,55.2516556 C68.6949686,54.3397351 69.3899371,53.6423841 70.2987421,53.6423841 L72.2767296,53.6423841 C73.1855346,53.6423841 73.8805031,54.3397351 73.8805031,55.2516556 L73.8805031,57.2364238 L73.8805031,57.2364238 Z M73.8805031,49.4582781 C73.8805031,50.3701987 73.1855346,51.0675497 72.2767296,51.0675497 L70.2987421,51.0675497 C69.3899371,51.0675497 68.6949686,50.3701987 68.6949686,49.4582781 L68.6949686,47.4735099 C68.6949686,46.5615894 69.3899371,45.8642384 70.2987421,45.8642384 L72.2767296,45.8642384 C73.1855346,45.8642384 73.8805031,46.5615894 73.8805031,47.4735099 L73.8805031,49.4582781 L73.8805031,49.4582781 Z M73.8805031,41.5728477 C73.8805031,42.4847682 73.1855346,43.1821192 72.2767296,43.1821192 L70.2987421,43.1821192 C69.3899371,43.1821192 68.6949686,42.4847682 68.6949686,41.5728477 L68.6949686,39.5880795 C68.6949686,38.6761589 69.3899371,37.9788079 70.2987421,37.9788079 L72.2767296,37.9788079 C73.1855346,37.9788079 73.8805031,38.6761589 73.8805031,39.5880795 L73.8805031,41.5728477 L73.8805031,41.5728477 Z M81.2578616,57.2364238 C81.2578616,58.1483444 80.5628931,58.8456954 79.6540881,58.8456954 L77.6761006,58.8456954 C76.7672956,58.8456954 76.072327,58.1483444 76.072327,57.2364238 L76.072327,55.2516556 C76.072327,54.3397351 76.7672956,53.6423841 77.6761006,53.6423841 L79.6540881,53.6423841 C80.5628931,53.6423841 81.2578616,54.3397351 81.2578616,55.2516556 L81.2578616,57.2364238 L81.2578616,57.2364238 Z M81.2578616,49.4582781 C81.2578616,50.3701987 80.5628931,51.0675497 79.6540881,51.0675497 L77.6761006,51.0675497 C76.7672956,51.0675497 76.072327,50.3701987 76.072327,49.4582781 L76.072327,47.4735099 C76.072327,46.5615894 76.7672956,45.8642384 77.6761006,45.8642384 L79.6540881,45.8642384 C80.5628931,45.8642384 81.2578616,46.5615894 81.2578616,47.4735099 L81.2578616,49.4582781 L81.2578616,49.4582781 Z M81.2578616,41.5728477 C81.2578616,42.4847682 80.5628931,43.1821192 79.6540881,43.1821192 L77.6761006,43.1821192 C76.7672956,43.1821192 76.072327,42.4847682 76.072327,41.5728477 L76.072327,39.5880795 C76.072327,38.6761589 76.7672956,37.9788079 77.6761006,37.9788079 L79.6540881,37.9788079 C80.5628931,37.9788079 81.2578616,38.6761589 81.2578616,39.5880795 L81.2578616,41.5728477 L81.2578616,41.5728477 Z" id="Shape"></path>
                </g>
            </g>
        </g>
    </g>
</svg>