<?xml version="1.0" encoding="UTF-8" standalone="no"?>
<svg width="88px" height="89px" viewBox="0 0 88 89" version="1.1" xmlns="http://www.w3.org/2000/svg" xmlns:xlink="http://www.w3.org/1999/xlink" xmlns:sketch="http://www.bohemiancoding.com/sketch/ns">
    <!-- Generator: Sketch 3.1.1 (8761) - http://www.bohemiancoding.com/sketch -->
    <title>wizard_icons_music_video</title>
    <desc>Created with Sketch.</desc>
    <defs></defs>
    <g id="Page-1" stroke="none" stroke-width="1" fill="none" fill-rule="evenodd" sketch:type="MSPage">
        <g id="-8" sketch:type="MSArtboardGroup" transform="translate(-584.000000, -403.000000)" fill="#5D7E8F">
            <g id="wizard_icons_music_video" sketch:type="MSLayerGroup" transform="translate(563.000000, 404.000000)">
                <g transform="translate(21.000000, 0.000000)" id="Shape" sketch:type="MSShapeGroup">
                    <path d="M85.86875,13.7230769 L83.325,2.76923077 C82.84375,0.738461538 80.64375,-0.553846154 78.44375,-0.123076923 L65.51875,2.27692308 L84.5625,13.9692308 L85.86875,13.7230769 L85.86875,13.7230769 Z"></path>
                    <path d="M73.2875,16.0615385 L54.24375,4.36923077 L41.59375,6.76923077 L60.6375,18.4 L73.2875,16.0615385 Z"></path>
                    <path d="M49.3625,20.4923077 L30.31875,8.86153846 L17.66875,11.2 L36.7125,22.8307692 L49.3625,20.4923077 Z"></path>
                    <path d="M87.65625,27.9756331 L84.15,27.9756331 L69.64375,40.2243192 L57.8875,40.2243192 L72.4625,27.9175824 L59.2625,27.9175824 L44.6875,40.2243192 L32.93125,40.2243192 L47.50625,27.9175824 L34.30625,27.9175824 L19.73125,40.2243192 L8.04375,40.2243192 L22.61875,27.9175824 L12.85625,27.9175824 C12.85625,27.3951266 12.7875,26.9307215 12.58125,26.4663163 L12.65,26.4663163 L25.36875,24.2603918 L6.325,13.2307692 L5.15625,13.4629718 C2.8875,13.8693263 1.44375,15.726947 1.925,17.5845676 L3.36875,23.3896321 C1.58125,24.3184424 0.34375,26.0019111 0.34375,27.9175824 C0.34375,30.1815576 2.0625,32.1552795 4.46875,32.8518872 L4.46875,40.2243192 L4.46875,84.5169613 C4.46875,86.4326326 6.325,88 8.59375,88 L83.39375,88 C85.6625,88 87.51875,86.4326326 87.51875,84.5169613 L87.51875,40.2243192 L82.01875,40.2243192 L87.51875,35.5802676 L87.51875,27.9756331 L87.65625,27.9756331 Z M61.05,59.0327281 L61.05,59.0327281 L61.05,73.0809842 C60.775,74.8225036 58.3,76.6220736 54.79375,77.376732 C50.7375,78.3055423 47.025,77.4347826 46.40625,75.5191113 C45.7875,73.60344 48.5375,71.2814142 52.59375,70.3526039 C54.175,70.0043 55.6875,69.8881988 56.99375,70.0623507 L56.99375,59.0327281 L39.875,59.0327281 L39.875,73.0809842 C39.6,74.8225036 37.125,76.6220736 33.61875,77.376732 C29.5625,78.3055423 25.85,77.4347826 25.23125,75.5191113 C24.6125,73.60344 27.3625,71.2814142 31.41875,70.3526039 C33,70.0043 34.5125,69.8881988 35.81875,70.0623507 L35.81875,59.0327281 L35.81875,54.969183 L35.81875,52.1247014 C35.81875,51.1958911 36.7125,50.4412327 37.8125,50.4412327 L59.125,50.4412327 C60.225,50.4412327 61.11875,51.1958911 61.11875,52.1247014 L61.11875,59.0327281 L61.05,59.0327281 Z"></path>
                </g>
            </g>
        </g>
    </g>
</svg>