<?xml version="1.0" encoding="UTF-8" standalone="no"?>
<svg width="83px" height="83px" viewBox="0 0 83 83" version="1.1" xmlns="http://www.w3.org/2000/svg" xmlns:xlink="http://www.w3.org/1999/xlink" xmlns:sketch="http://www.bohemiancoding.com/sketch/ns">
    <!-- Generator: Sketch 3.1.1 (8761) - http://www.bohemiancoding.com/sketch -->
    <title>wizard_icons_private_eye</title>
    <desc>Created with Sketch.</desc>
    <defs></defs>
    <g id="Page-1" stroke="none" stroke-width="1" fill="none" fill-rule="evenodd" sketch:type="MSPage">
        <g id="-8" sketch:type="MSArtboardGroup" transform="translate(-969.000000, -410.000000)" fill="#5D7E8F">
            <g id="Group" sketch:type="MSLayerGroup" transform="translate(50.000000, 384.000000)">
                <g id="wizard_icons_private_eye" transform="translate(960.000000, 67.500000) scale(-1, 1) translate(-960.000000, -67.500000) translate(919.000000, 27.000000)" sketch:type="MSShapeGroup">
                    <path d="M80.8671053,70.902 L65.0065789,55.026 C65.9776316,52.38 65.8697368,49.95 64.4671053,48.492 C64.0355263,48.06 63.4960526,47.736 62.8486842,47.52 C68.675,35.478 66.8407895,20.466 57.2921053,10.26 C44.1828947,-3.726 22.0105263,-3.726 8.84736842,10.26 C-3.02105263,22.95 -3.02105263,42.984 8.84736842,55.62 C19.0973684,66.582 34.9578947,68.958 47.6355263,62.748 C47.8513158,63.342 48.1210526,63.882 48.6065789,64.368 C50.225,65.988 53.1381579,65.934 56.1592105,64.476 L71.6960526,80.028 C73.0447368,81.378 75.2565789,81.378 76.6052632,80.028 L80.9210526,75.708 C82.2697368,74.466 82.2697368,72.252 80.8671053,70.902 L80.8671053,70.902 Z M10.7355263,35.37 L10.7355263,35.694 C10.6815789,37.206 8.52368421,37.314 8.30789474,35.802 C7.49868421,28.512 9.87236842,20.898 15.4289474,15.336 C21.0934211,9.666 28.7539474,7.29 36.1447368,8.208 C37.8710526,8.424 37.7092105,10.908 35.9828947,10.908 L35.6592105,10.908 C22.2802632,11.232 11.275,22.032 10.7355263,35.37 L10.7355263,35.37 Z M53.1381579,38.394 C53.0842105,38.502 51.3039474,40.824 48.5526316,43.2 C44.6684211,46.44 40.5684211,48.168 36.6842105,48.168 C32.8,48.168 28.6460526,46.44 24.8157895,43.2 C22.0644737,40.878 20.2842105,38.502 20.2302632,38.394 C19.3671053,37.26 19.3671053,35.694 20.2302632,34.56 C20.2842105,34.452 22.0644737,32.13 24.8157895,29.754 C28.7,26.514 32.8,24.786 36.6842105,24.786 C40.5684211,24.786 44.7223684,26.514 48.5526316,29.754 C51.3039474,32.076 53.0842105,34.452 53.1381579,34.56 C54.0013158,35.694 54.0013158,37.26 53.1381579,38.394 L53.1381579,38.394 Z" id="Shape"></path>
                    <path d="M36.6842105,28.026 C29.0236842,28.026 22.8197368,36.504 22.8197368,36.504 C22.8197368,36.504 29.0236842,44.982 36.6842105,44.982 C44.3447368,44.982 50.5486842,36.504 50.5486842,36.504 C50.5486842,36.504 44.3447368,28.026 36.6842105,28.026 L36.6842105,28.026 Z M36.6842105,41.364 C33.9868421,41.364 31.775,39.15 31.775,36.45 C31.775,33.75 33.9868421,31.536 36.6842105,31.536 C39.3815789,31.536 41.5934211,33.75 41.5934211,36.45 C41.5934211,39.15 39.3815789,41.364 36.6842105,41.364 L36.6842105,41.364 Z" id="Shape"></path>
                </g>
            </g>
        </g>
    </g>
</svg>